{"title":"Tammy 2014 READNFO WEBRIP SUB XVID AC3 ACAB","uid":10588022,"size":1517349250,"categoryP":"video","categoryS":"hd___movies","magnet":"?xt=urn:btih:bfbdbbe7c8eb8253f7e683ba97c30c51a881bd8a&amp;dn=Tammy+2014+READNFO+WEBRIP+SUB+XVID+AC3+ACAB&amp;tr=udp%3A%2F%2Ftracker.openbittorrent.com%3A80&amp;tr=udp%3A%2F%2Fopen.demonii.com%3A1337&amp;tr=udp%3A%2F%2Ftracker.coppersurfer.tk%3A6969&amp;tr=udp%3A%2F%2Fexodus.desync.com%3A6969","seeders":1,"leechers":0,"uploader":"lokioddin","files":4,"time":1405728961,"description":"SilverTorrent - Clean And Verified Torrents Download\n\n\n\nTammy 2014 READNFO WEBRIP SUB XVID AC3 ACAB\n\n\n &lt;a href=&quot;\nhttp://www.imdb.com/title/tt2103254/&quot; rel=&quot;nofollow&quot; target=&quot;_NEW&quot;&gt;\nhttp://www.imdb.com/title/tt2103254/&lt;/a&gt;\n\n\n\nReason For READNFO:\nSource Was Way Too Bright So Managed To Lower The Brightness And Sorted A Few Colours Out. If I De Brightened It Any More It Would be Too Dark In Dark Scenes So Did What Could Be Done. Some Say Source Wasnt In sync So Got The Audio Muxed After The Vid Was Sorted. Added A Bit Of Sharpness So Enjoy...\n\nFormat                                   : AVI\nFormat/Info                              : Audio Video Interleave\nFile size                                : 1.38 GiB\nDuration                                 : 1h 36mn\nOverall bit rate                         : 2 046 Kbps\n\nVideo\nID                                       : 0\nFormat                                   : MPEG-4 Visual\nFormat profile                           : Advanced Simple@L5\nFormat settings, BVOP                    : 2\nFormat settings, QPel                    : No\nFormat settings, GMC                     : No warppoints\nFormat settings, Matrix                  : Default (H.263)\nMuxing mode                              : Packed bitstream\nCodec ID                                 : XVID\nCodec ID/Hint                            : XviD\nDuration                                 : 1h 36mn\nBit rate                                 : 1 847 Kbps\nWidth                                    : 720 pixels\nHeight                                   : 400 pixels\nDisplay aspect ratio                     : 16:9\nFrame rate                               : 23.976 fps\nColor space                              : YUV\nChroma subsampling                       : 4:2:0\nBit depth                                : 8 bits\nScan type                                : Progressive\nCompression mode                         : Lossy\nBits/(Pixel*Frame)                       : 0.267\nStream size                              : 1.25 GiB (90%)\nWriting library                          : XviD 1.2.1 (UTC 2008-12-04)\n\nAudio\nID                                       : 1\nFormat                                   : AC-3\nFormat/Info                              : Audio Coding 3\nMode extension                           : CM (complete main)\nFormat settings, Endianness              : Big\nCodec ID                                 : 2000\nDuration                                 : 1h 36mn\nBit rate mode                            : Constant\nBit rate                                 : 192 Kbps\nChannel(s)                               : 2 channels\nChannel positions                        : Front: L R\nSampling rate                            : 48.0 KHz\nBit depth                                : 16 bits\nCompression mode                         : Lossy\nStream size                              : 133 MiB (9%)\nAlignment                                : Aligned on interleaves\nInterleave, duration                     : 64 ms (1.53 video frames)\nInterleave, preload duration             : 192 ms\nTitle                                    : English\n\n &lt;a href=&quot;\nhttp://s8.postimg.org/6ergp16zp/image.png&quot; rel=&quot;nofollow&quot; target=&quot;_NEW&quot;&gt;\nhttp://s8.postimg.org/6ergp16zp/image.png&lt;/a&gt;\n &lt;a href=&quot;\nhttp://s8.postimg.org/fb28syxlx/image.png&quot; rel=&quot;nofollow&quot; target=&quot;_NEW&quot;&gt;\nhttp://s8.postimg.org/fb28syxlx/image.png&lt;/a&gt;\n &lt;a href=&quot;\nhttp://s8.postimg.org/pmellmpb9/image.png&quot; rel=&quot;nofollow&quot; target=&quot;_NEW&quot;&gt;\nhttp://s8.postimg.org/pmellmpb9/image.png&lt;/a&gt;\n\nSilverTorrent - Clean And Verified Torrents Download\n\n","torrent":{"xt":"urn:btih:bfbdbbe7c8eb8253f7e683ba97c30c51a881bd8a","amp;dn":"Tammy+2014+READNFO+WEBRIP+SUB+XVID+AC3+ACAB","amp;tr":["udp%3A%2F%2Ftracker.openbittorrent.com%3A80","udp%3A%2F%2Fopen.demonii.com%3A1337","udp%3A%2F%2Ftracker.coppersurfer.tk%3A6969","udp%3A%2F%2Fexodus.desync.com%3A6969"],"infoHash":"bfbdbbe7c8eb8253f7e683ba97c30c51a881bd8a","infoHashBuffer":{"type":"Buffer","data":[191,189,187,231,200,235,130,83,247,230,131,186,151,195,12,81,168,129,189,138]},"announce":[],"urlList":[]}}